<svg width="16" height="16" viewBox="0 0 16 16" fill="none" xmlns="http://www.w3.org/2000/svg">
<path d="M13.5306 6.53061L8.53063 11.5306C8.46095 11.6005 8.37816 11.656 8.28699 11.6939C8.19583 11.7317 8.09809 11.7512 7.99938 11.7512C7.90067 11.7512 7.80293 11.7317 7.71176 11.6939C7.6206 11.656 7.53781 11.6005 7.46813 11.5306L2.46813 6.53061C2.32723 6.38972 2.24808 6.19862 2.24808 5.99936C2.24808 5.80011 2.32723 5.60901 2.46813 5.46811C2.60902 5.32722 2.80012 5.24806 2.99938 5.24806C3.19864 5.24806 3.38973 5.32722 3.53063 5.46811L8 9.93749L12.4694 5.46749C12.6103 5.32659 12.8014 5.24744 13.0006 5.24744C13.1999 5.24744 13.391 5.32659 13.5319 5.46749C13.6728 5.60838 13.7519 5.79948 13.7519 5.99874C13.7519 6.198 13.6728 6.38909 13.5319 6.52999L13.5306 6.53061Z" fill="black"/>
</svg>
