<svg width="208" height="36" viewBox="0 0 208 36" fill="none" xmlns="http://www.w3.org/2000/svg">
<path fill-rule="evenodd" clip-rule="evenodd" d="M17.1298 32.2013C9.89114 32.2013 3.71249 25.2587 3.71249 17.6861C3.71249 10.1416 9.76182 3.06106 17.0778 3.06106C21.887 3.06106 25.3499 5.52136 28.1684 9.37602H31.7098C30.6498 7.35285 29.5125 5.49447 27.7805 4.04518C24.8072 1.50306 20.9552 0 17.1298 0C7.95243 0 0.481689 8.00971 0.481689 17.6592C0.481689 27.3356 8.05633 35.2635 17.1817 35.2635C20.9044 35.2635 24.5497 33.8154 27.471 31.382C29.3069 29.824 30.599 27.8008 31.8402 25.7227H28.2989C25.5058 29.5774 21.9389 32.2013 17.1298 32.2013ZM53.8391 13.7496C51.6163 10.7155 48.5911 8.80214 44.843 8.80214C38.1217 8.80214 32.5896 14.5713 32.5896 21.6787C32.5896 28.7849 38.1482 34.6078 44.843 34.6078C48.747 34.6078 51.4605 32.885 53.8391 29.7141V34.0328H56.7604V9.4029H53.8391V13.7496ZM44.6883 31.7642C39.5431 31.7642 35.4844 27.0352 35.4844 21.7056C35.4844 16.4016 39.5177 11.6458 44.6883 11.6458C49.8324 11.6458 53.8391 16.4028 53.8391 21.7056C53.8391 27.0352 49.8059 31.7642 44.6883 31.7642ZM60.3018 34.0328H63.4309V0.709457H60.3018V34.0328ZM75.2444 30.1232L67.3337 9.4029H64.2312L73.7191 34.0328H76.8725L86.335 9.4029H83.2844L75.2444 30.1232ZM87.6271 34.0328H90.7551V9.4029H87.6271V34.0328ZM87.6271 6.23198H90.7551V0.709457H87.6271V6.23198ZM104.224 8.80098C101.277 8.80098 99.1831 10.442 97.2444 12.6288V9.4029H94.3485V34.0328H97.4245V19.0244C97.3991 15.061 100.501 11.6446 104.275 11.6446C109.005 11.6446 111.383 15.9914 111.383 20.4748V34.034H114.278V20.4748C114.279 14.0781 110.739 8.80098 104.224 8.80098ZM143.311 0.709457L129.093 19.818V0.709457H126.017V34.0328H129.093V24.8753L133.126 19.5725L143.389 34.0328H147.294L135.09 16.9474L147.294 0.709457H143.311ZM148.43 34.0328H151.482V0.709457H148.43V34.0328ZM176.738 15.608C174.618 11.4249 170.378 8.80098 165.905 8.80098C159.236 8.80098 153.599 14.6788 153.599 21.7313C153.599 28.8375 159.287 34.6067 165.959 34.6067C169.137 34.6067 172.267 33.2672 174.566 30.9437C175.963 29.5493 176.79 27.7996 177.538 25.9681H174.256C172.601 29.3857 169.679 31.763 165.904 31.763C163.605 31.763 161.355 30.7789 159.65 29.111C157.89 27.4174 157.115 25.3382 156.778 22.879H178.263C178.264 20.31 177.927 17.8497 176.738 15.608ZM156.883 20.0365C157.816 15.4175 161.252 11.6446 165.959 11.6446C169.914 11.6446 174.154 14.2148 175.084 20.0365H156.883ZM180.539 34.0328H183.614V9.4029H180.539V34.0328ZM180.539 6.34185H183.614V0.709457H180.539V6.34185ZM197.136 8.80098C194.135 8.80098 192.042 10.442 190.077 12.6288V9.4029H187.13V34.0328H190.232V19.0244C190.207 15.0341 193.387 11.6446 197.186 11.6446C201.892 11.6446 204.375 15.9914 204.375 20.4748V34.034H207.27V20.4748C207.27 14.0781 203.675 8.80098 197.136 8.80098Z" fill="white"/>
</svg>
