<svg width="167" height="36" viewBox="0 0 167 36" fill="none" xmlns="http://www.w3.org/2000/svg">
<path fill-rule="evenodd" clip-rule="evenodd" d="M150.179 0.693315H166.482V3.44023C166.008 3.27209 165.513 3.18542 165.013 3.18353H155.642V16.0193H164.758C165.413 16.0193 165.996 15.9432 166.481 15.8137V18.5486C166.068 18.4462 165.499 18.3943 164.794 18.3943H155.642V31.6666H164.733C165.232 31.6666 165.826 31.5899 166.481 31.4227V34.3752H150.203C150.333 33.8559 150.399 33.3209 150.398 32.7838V2.32309C150.398 1.65613 150.325 1.10434 150.179 0.693315ZM146.405 9.43465L141.695 9.39701C141.464 6.59816 139.947 3.88889 136.609 3.38979C129.459 2.70927 127.444 11.0132 127.626 17.0852C127.809 22.9381 128.694 31.9361 136.075 31.9361C139.171 31.9361 142.144 28.5727 142.047 25.7362L146.405 25.6986C146.089 31.5515 139.741 34.9398 136.718 35.0557C126.389 35.4283 122.066 28.1496 121.848 17.7642C121.654 8.35741 125.296 0 135.504 0C144.244 0.128726 145.931 5.59695 146.405 9.43465ZM72.9408 30.5495L76.0611 27.7898C77.687 30.627 79.0225 31.9226 82.2517 31.9226C85.5286 31.9226 88.285 29.8178 88.285 26.096C88.285 24.26 87.5802 22.7582 86.1849 21.629C85.5528 21.1021 83.951 20.1912 81.4259 18.9205C77.6507 17.0084 73.9731 14.5175 73.9731 9.51219C73.9731 3.19632 79.0467 0.41102 84.3995 0.204757C87.5681 0.0767841 91.5014 1.92638 93.091 4.00481L89.9231 6.58461C89.3581 5.46964 88.5181 4.53728 87.4923 3.88651C86.4665 3.23573 85.2932 2.89083 84.0969 2.88843C80.0541 2.88843 76.8498 7.84326 80.2 11.2579C81.0493 12.1304 82.7863 13.2084 85.4324 14.4919C89.6561 16.5846 93.2612 19.0869 93.2612 24.6198C93.2612 26.5319 92.7878 28.316 91.853 29.9465C89.9722 33.2324 86.8278 34.8758 82.4339 34.8758C77.3838 34.8758 76.3892 33.6562 72.9408 30.5495ZM28.4893 0.693315H44.7782V3.44023C44.3051 3.27215 43.8094 3.18549 43.3103 3.18353H33.9396V16.0193H43.0554C43.7111 16.0193 44.2941 15.9432 44.7789 15.8137V18.5486C44.366 18.4462 43.7958 18.3943 43.1046 18.3943H33.9396V31.6666H43.0312C43.5289 31.6666 44.124 31.5899 44.7789 31.4227V34.3752H28.5143C28.6332 33.854 28.6941 33.3199 28.6958 32.7838V2.32309C28.6958 1.65613 28.6225 1.10434 28.4893 0.693315ZM0 0.693315H5.92368V1.00196C5.92368 1.28425 6.0084 1.65613 6.15434 2.13113L14.5049 28.7142L23.0754 2.0152C23.2085 1.56654 23.2818 1.12993 23.2818 0.693315H26.1586C25.8674 1.23231 25.6489 1.70807 25.515 2.13113L15.7308 33.0021C15.6339 33.2972 15.5492 33.7594 15.4766 34.3759H10.6208C10.5474 33.9093 10.4379 33.4498 10.2933 33.0021L0.704065 2.37504C0.482555 1.81019 0.251627 1.24953 0.0113903 0.693315H0ZM62.9145 18.2535C66.7986 17.4443 69.7729 14.2999 69.7729 9.80728C69.7729 3.91448 65.1114 0.692562 59.8918 0.692562H50.3509C50.4841 1.20671 50.5574 1.74571 50.5574 2.3103V32.7567C50.5574 33.4116 50.4841 33.9634 50.3509 34.3744H56.0319C55.8929 33.8478 55.8235 33.3034 55.8254 32.7567V18.7669L57.6457 18.9724L67.1631 34.3744H72.8803L62.9145 18.2535ZM61.9314 15.6865C60.8998 16.4559 59.6611 16.8405 58.2409 16.8405H55.8133V3.14664H57.986C59.8441 3.14664 61.2878 3.63369 62.32 4.60855C63.7282 5.95754 64.4443 7.78003 64.4443 10.0647C64.4443 12.5293 63.6064 14.403 61.9314 15.6865ZM120.901 32.9765L110.293 1.81045C110.175 1.4501 110.105 1.07406 110.086 0.693315H105.497C105.497 1.09154 105.436 1.5146 105.29 1.93842L95.0096 32.9765C94.875 33.4244 94.6572 33.8874 94.366 34.3752H97.3275C97.3161 33.8618 97.3766 33.3868 97.5105 32.9765L100.556 23.8234H112.27L115.281 32.9772C115.439 33.4763 115.511 33.9385 115.511 34.3752H121.654C121.301 33.849 121.047 33.374 120.901 32.9765ZM101.358 21.346L106.31 6.13595L111.397 21.346H101.358Z" fill="white"/>
</svg>
